<svg width="78" height="78" viewBox="0 0 78 78" fill="none" xmlns="http://www.w3.org/2000/svg">
<path d="M66.1805 0.000244141H11.8193C5.30075 0.000244141 -6.10352e-05 5.30106 -6.10352e-05 11.8196V66.1729C-6.10352e-05 72.6994 5.30075 78.0002 11.8193 78.0002H66.1726C72.6991 78.0002 77.9999 72.6994 77.9999 66.1809V11.8196C77.9999 5.30106 72.6991 0.000244141 66.1805 0.000244141ZM73.1249 66.1809C73.1271 66.1809 73.1289 66.1827 73.1289 66.1849C73.1267 70.0114 70.0155 73.1292 66.1805 73.1292H11.8193C7.99096 73.1292 4.87096 70.0172 4.87096 66.1809V11.8196C4.87096 7.99126 7.983 4.87126 11.8193 4.87126H66.1726C70.0089 4.87126 73.121 7.9833 73.121 11.8196V66.1769C73.121 66.1791 73.1227 66.1809 73.1249 66.1809V66.1809Z" fill="black"/>
<path fill-rule="evenodd" clip-rule="evenodd" d="M40.9999 31.9203L34.9999 40.4203L39.4017 46.7785L39.4742 46.6768L54.0839 67.1671C55.2569 68.8123 57.5672 69.2166 59.2292 68.0675C60.8927 66.9094 61.2896 64.6414 60.1166 62.9962L43.9775 40.3609L60.1166 17.7256C61.2896 16.0804 60.8927 13.8124 59.2292 12.6543C57.5672 11.5052 55.2569 11.9095 54.0839 13.5546L40.9947 31.9125L40.9999 31.9203Z" fill="black"/>
<path fill-rule="evenodd" clip-rule="evenodd" d="M37.7907 31.9203L43.7907 40.4203L39.3889 46.7785L39.3164 46.6768L24.7068 67.1671C23.5338 68.8123 21.2235 69.2165 19.5615 68.0675C17.898 66.9094 17.5011 64.6414 18.6741 62.9962L34.8131 40.3609L18.6741 17.7256C17.5011 16.0804 17.898 13.8124 19.5615 12.6543C21.2235 11.5052 23.5338 11.9095 24.7068 13.5546L37.796 31.9125L37.7907 31.9203Z" fill="black"/>
</svg>
