<svg width="142" height="87" viewBox="0 0 142 87" fill="none" xmlns="http://www.w3.org/2000/svg">
<rect width="68.5102" height="77.8525" rx="5" transform="matrix(0.860875 -0.508816 0.860875 0.508816 12 46.9952)" fill="#1E6294"/>
<path d="M81.8036 19.1236L31.9121 47.926C28.5062 49.8922 28.5062 53.0801 31.9121 55.0463L73.3184 78.9501C76.7243 80.9164 82.2463 80.9164 85.6522 78.9501L135.544 50.1478C138.95 48.1815 138.95 44.9936 135.544 43.0274L94.1375 19.1236C90.7316 17.1574 85.2096 17.1574 81.8036 19.1236Z" fill="url(#paint0_linear_1_37)"/>
<path d="M64.8331 9.32651L14.9415 38.1289C11.5356 40.0951 11.5356 43.283 14.9415 45.2492L71.9041 78.1337C75.31 80.1 80.8321 80.1 84.238 78.1337L134.13 49.3314C137.535 47.3651 137.535 44.1772 134.13 42.211L77.1669 9.32651C73.761 7.36028 68.239 7.36028 64.8331 9.32651Z" fill="#31A3F5"/>
<path d="M72.4142 13.1141L21.5025 42.5055L79.4853 75.9789L130.397 46.5876L72.4142 13.1141Z" fill="#DEDDDA"/>
<path d="M68.1716 10.6649L17.2599 40.0562L78.0711 75.1625L128.983 45.7712L68.1716 10.6649Z" fill="white"/>
<path d="M22.9167 30.2591C21.3498 31.1637 21.3498 32.6202 22.9167 33.5248L27.1594 35.9741L61.1005 16.3799L56.8579 13.9306C55.2909 13.026 52.768 13.026 51.201 13.9306L41.3015 19.6456L39.8873 23.7277L32.8162 24.5441L22.9167 30.2591Z" fill="#C0BFBC"/>
<path d="M39.8873 23.7277C42.2304 22.375 42.2304 20.1818 39.8873 18.8291C37.5441 17.4764 33.7451 17.4764 31.402 18.8291C29.0589 20.1818 29.0589 22.375 31.402 23.7277C33.7451 25.0804 37.5441 25.0804 39.8873 23.7277Z" stroke="#C0BFBC" stroke-width="4" stroke-linejoin="round"/>
<path d="M61.1005 16.3798L27.1594 35.9741L29.9878 37.6069L63.9289 18.0127L61.1005 16.3798Z" fill="#9A9996"/>
<path d="M56.8578 53.119L65.3431 53.119L65.3431 44.9547" stroke="#61AB71" stroke-width="4"/>
<path d="M56.8578 33.5248L73.8284 23.7277L76.6568 25.3605L59.6863 35.1576L56.8578 33.5248Z" fill="#DEDDDA"/>
<path d="M73.8284 43.3219L86.5564 35.9741L89.3848 37.6069L76.6569 44.9548L73.8284 43.3219Z" fill="#DEDDDA"/>
<path d="M39.8873 43.3219L48.3725 43.3219L48.3725 35.1577" stroke="#61AB71" stroke-width="4"/>
<path d="M73.8284 62.9161L82.3137 62.9161L82.3137 54.7519" stroke="#61AB71" stroke-width="4"/>
<path d="M90.799 53.119L107.77 43.3219L110.598 44.9547L93.6274 54.7518L90.799 53.119Z" fill="#DEDDDA"/>
<defs>
<linearGradient id="paint0_linear_1_37" x1="56.8579" y1="69.4475" x2="87.9665" y2="15.5611" gradientUnits="userSpaceOnUse">
<stop stop-color="#61AB71"/>
<stop offset="0.0288459" stop-color="#CDAB8F"/>
<stop offset="0.057692" stop-color="#B5835A"/>
<stop offset="0.942308" stop-color="#B5835A"/>
<stop offset="0.971333" stop-color="#CDAB8F"/>
<stop offset="1" stop-color="#3D7349"/>
</linearGradient>
</defs>
</svg>
