<svg width="78" height="78" viewBox="0 0 78 78" fill="none" xmlns="http://www.w3.org/2000/svg">
<path d="M66.1806 0H11.8194C5.30082 0 0 5.30082 0 11.8194V66.1727C0 72.6992 5.30082 78 11.8194 78H66.1727C72.6992 78 78 72.6992 78 66.1806V11.8194C78 5.30082 72.6992 0 66.1806 0ZM73.125 66.1806C73.1272 66.1806 73.129 66.1824 73.129 66.1846C73.1268 70.0111 70.0156 73.129 66.1806 73.129H11.8194C7.99102 73.129 4.87102 70.0169 4.87102 66.1806V11.8194C4.87102 7.99102 7.98306 4.87102 11.8194 4.87102H66.1727C70.009 4.87102 73.121 7.98306 73.121 11.8194V66.1766C73.121 66.1788 73.1228 66.1806 73.125 66.1806V66.1806Z" fill="black"/>
<path d="M62.975 13.1343L38.2324 47.8361C34.7408 52.7332 27.9634 53.9181 23.0173 50.4962L15.3041 45.1597C13.6421 44.0106 11.341 44.4133 10.1588 46.0601C8.98583 47.7052 9.38272 49.9733 11.0463 51.1314L30.6877 64.7111C31.5187 65.2856 32.5195 65.4751 33.4583 65.3108C34.3972 65.1465 35.2665 64.6391 35.8514 63.8075L69.0077 17.3052C70.1807 15.66 69.7838 13.392 68.1202 12.2339C66.4583 11.0848 64.148 11.4891 62.975 13.1343Z" fill="black"/>
</svg>
